Coordinates
version=1
nRows=19
nColumns=34
inDegrees=no

Units are S.I. units (second, meters, Newtons, ...)
If the header above contains a line with 'inDegrees', this indicates whether rotational values are in degrees (yes) or radians (no).

endheader
time	pelvis_tilt	pelvis_list	pelvis_rotation	pelvis_tx	pelvis_ty	pelvis_tz	hip_flexion_r	hip_adduction_r	hip_rotation_r	knee_angle_r	ankle_angle_r	subtalar_angle_r	mtp_angle_r	hip_flexion_l	hip_adduction_l	hip_rotation_l	knee_angle_l	ankle_angle_l	subtalar_angle_l	mtp_angle_l	lumbar_extension	lumbar_bending	lumbar_rotation	arm_flex_r	arm_add_r	arm_rot_r	elbow_flex_r	pro_sup_r	arm_flex_l	arm_add_l	arm_rot_l	elbow_flex_l	pro_sup_l
0.241	-0.335913	0.200348	-0.0842905	3.27193	0.933579	0.260388	-0.465068	-0.25563	-0.145993	0.543323	-0.499143	-0.156614	0.353069	1.36469	-0.0430599	-0.275548	1.02481	0.139969	-0.118998	0.139671	0.195146	-0.287907	0.242775	0.820712	-0.355886	-0.0013259	2.06881	2.41671	-1.41671	-0.250825	-0.572727	0.879574	1.95956
0.242	-0.329768	0.197563	-0.0645001	3.3103	0.935504	0.259575	-0.466155	-0.251033	-0.169572	0.627311	-0.502581	-0.170322	0.357174	1.32946	-0.0183744	-0.273761	0.934701	0.144611	-0.0507693	0.135638	0.176197	-0.293318	0.21789	0.783833	-0.36086	-0.00447141	2.08904	2.43099	-1.39105	-0.248678	-0.570519	0.881658	1.96141
0.243	-0.323885	0.192303	-0.0469945	3.34862	0.937481	0.258923	-0.46161	-0.245828	-0.18825	0.715855	-0.50841	-0.186588	0.361952	1.29351	0.00130132	-0.273808	0.850562	0.143451	0.0135427	0.12668	0.158056	-0.294328	0.195258	0.740665	-0.365316	-0.007889	2.1039	2.44455	-1.36313	-0.249079	-0.562686	0.886538	1.96105
0.244	-0.313805	0.176597	-0.0287821	3.38755	0.940085	0.258785	-0.450217	-0.229389	-0.189991	0.800457	-0.575622	-0.200419	0.320875	1.25332	0.0140962	-0.271903	0.776663	0.136084	0.0743955	0.0822068	0.134876	-0.283817	0.170076	0.69018	-0.36816	-0.0106189	2.11331	2.44928	-1.33103	-0.25064	-0.54884	0.89547	1.93748
0.245	-0.305963	0.157403	-0.0202649	3.42559	0.941827	0.259773	-0.433536	-0.209861	-0.165509	0.894403	-0.586451	-0.175119	0.308034	1.21895	0.0112612	-0.276235	0.716066	0.12756	0.129006	0.0899405	0.116085	-0.267383	0.15497	0.639557	-0.370194	-0.0123798	2.11576	2.45883	-1.29904	-0.25438	-0.534994	0.906895	1.93881
0.246	-0.298741	0.143943	-0.0139688	3.46321	0.942916	0.260576	-0.415151	-0.197134	-0.154746	0.996789	-0.56849	-0.177436	0.311695	1.18655	0.00843602	-0.289625	0.664264	0.11747	0.169374	0.0688722	0.098573	-0.256011	0.14309	0.5891	-0.371774	-0.0130448	2.1106	2.46395	-1.26751	-0.259239	-0.517734	0.92565	1.93098
0.247	-0.290234	0.134947	-0.00890848	3.50073	0.943751	0.260985	-0.397282	-0.190967	-0.150074	1.09958	-0.546704	-0.185329	0.31651	1.15363	0.00756979	-0.30852	0.622229	0.112523	0.193291	0.0707325	0.0798595	-0.248015	0.132056	0.538918	-0.37219	-0.0127824	2.09726	2.47226	-1.2347	-0.264235	-0.498501	0.946916	1.93266
0.248	-0.282093	0.130954	-0.00331035	3.53817	0.944382	0.261226	-0.378905	-0.18966	-0.148504	1.20127	-0.522029	-0.193571	0.313822	1.12144	0.0107735	-0.331471	0.588815	0.107974	0.199139	0.0301521	0.0616606	-0.244982	0.121286	0.487157	-0.370482	-0.0112224	2.07791	2.46589	-1.20097	-0.271787	-0.475868	0.970525	1.92868
0.249	-0.272475	0.128735	0.00450048	3.57547	0.944866	0.261432	-0.362027	-0.188476	-0.147875	1.3013	-0.489962	-0.200522	0.324017	1.08934	0.0173085	-0.354071	0.566072	0.107133	0.188461	0.0314158	0.0410673	-0.243574	0.107406	0.437486	-0.366269	-0.01119	2.04947	2.4744	-1.16563	-0.281286	-0.451839	0.994363	1.93128
0.25	-0.26348	0.130712	0.00988306	3.61276	0.945083	0.261286	-0.343502	-0.193588	-0.147437	1.40018	-0.462146	-0.212453	0.320051	1.06059	0.0243826	-0.377832	0.555368	0.101968	0.164428	-0.0143345	0.0221517	-0.245438	0.095431	0.388413	-0.360778	-0.00847624	2.01422	2.46337	-1.12851	-0.290651	-0.426358	1.01881	1.93013
0.251	-0.255508	0.13356	0.0152147	3.65	0.945073	0.261031	-0.323123	-0.201081	-0.146962	1.49715	-0.434761	-0.220442	0.327639	1.03469	0.0316213	-0.397134	0.554078	0.0970516	0.134457	-0.0181227	0.00429282	-0.247657	0.0835363	0.340581	-0.354511	-0.00965147	1.97044	2.47077	-1.08884	-0.300798	-0.400311	1.0412	1.93191
0.252	-0.24855	0.136551	0.0209551	3.68704	0.944934	0.261029	-0.300287	-0.207145	-0.144983	1.59229	-0.411176	-0.232514	0.326342	1.01087	0.0379213	-0.415928	0.560216	0.0862477	0.102639	-0.0562461	-0.0126655	-0.250456	0.071364	0.293584	-0.345563	-0.00946279	1.92108	2.45189	-1.04705	-0.312275	-0.374105	1.06365	1.93249
0.253	-0.243943	0.139727	0.0275206	3.7238	0.944549	0.260991	-0.273233	-0.21487	-0.14282	1.68621	-0.389703	-0.240272	0.33106	0.989877	0.0436729	-0.433046	0.572344	0.0746275	0.075899	-0.0555729	-0.0275034	-0.253186	0.0577963	0.249952	-0.335257	-0.0128326	1.86249	2.45681	-1.00279	-0.323566	-0.347864	1.08418	1.93298
0.254	-0.240836	0.142006	0.0345908	3.7604	0.943986	0.261094	-0.243017	-0.220864	-0.139241	1.77804	-0.37192	-0.25169	0.334499	0.970654	0.0480401	-0.446684	0.58955	0.0641219	0.0577829	-0.0523402	-0.0402814	-0.255289	0.0449145	0.20727	-0.323275	-0.014723	1.80021	2.42899	-0.956177	-0.33715	-0.318931	1.10322	1.9323
0.255	-0.237008	0.144435	0.0427343	3.79702	0.943326	0.261355	-0.21304	-0.227443	-0.13669	1.86644	-0.356727	-0.259726	0.342393	0.950292	0.0527174	-0.45556	0.609935	0.0556492	0.0513478	-0.0449024	-0.0538707	-0.257763	0.030616	0.168618	-0.309866	-0.0220171	1.72879	2.43074	-0.907527	-0.352171	-0.288686	1.12126	1.93089
0.256	-0.234573	0.148638	0.0510414	3.83383	0.94237	0.261267	-0.180879	-0.237941	-0.133374	1.95206	-0.342825	-0.269171	0.350497	0.929793	0.0595268	-0.460561	0.630032	0.049806	0.0552341	-0.034268	-0.0645941	-0.261744	0.0170172	0.132379	-0.296288	-0.0315658	1.65071	2.42874	-0.857369	-0.368327	-0.255256	1.13846	1.92947
0.257	-0.233817	0.152624	0.0601962	3.87051	0.941186	0.260955	-0.145168	-0.249414	-0.128651	2.03557	-0.329053	-0.278241	0.358782	0.910251	0.0674625	-0.46252	0.650467	0.0505575	0.0596643	0.00828855	-0.073263	-0.265082	0.00294696	0.0983021	-0.282486	-0.0338984	1.57504	2.36287	-0.803386	-0.383503	-0.22107	1.15218	1.92757
0.258	-0.236893	0.156868	0.0733357	3.90683	0.939641	0.260041	-0.10467	-0.263234	-0.12423	2.11734	-0.312259	-0.281853	0.372354	0.895816	0.0805608	-0.462019	0.675694	0.0681654	0.0514101	0.125735	-0.0786815	-0.268001	-0.0138978	0.0682876	-0.27078	-0.0461478	1.48865	2.37043	-0.745989	-0.399316	-0.180811	1.16727	1.90718
0.259	-0.242083	0.155997	0.0888278	3.94289	0.93758	0.259185	-0.0594892	-0.271642	-0.11833	2.1967	-0.295348	-0.282836	0.377597	0.883414	0.0920172	-0.448061	0.705182	0.108018	0.0510114	0.272553	-0.081382	-0.265643	-0.0326162	0.0406839	-0.259712	-0.0499022	1.40707	2.30193	-0.686058	-0.413691	-0.141321	1.17992	1.89748
